<svg width="50" height="53" viewBox="0 0 50 53" fill="none" xmlns="http://www.w3.org/2000/svg">
<path d="M34.1143 7.88232C36.5295 7.88969 38.8439 8.87285 40.5517 10.6171C42.2596 12.3613 43.2223 14.7249 43.2295 17.1917V35.8084C43.2223 38.2751 42.2596 40.6387 40.5517 42.3829C38.8439 44.1272 36.5295 45.1103 34.1143 45.1177H15.8857C13.4705 45.1103 11.1561 44.1272 9.44827 42.3829C7.74039 40.6387 6.77772 38.2751 6.77051 35.8084V17.1917C6.77772 14.7249 7.74039 12.3613 9.44827 10.6171C11.1561 8.87285 13.4705 7.88969 15.8857 7.88232H34.1143ZM34.1143 4.15918H15.8857C8.86719 4.15918 3.125 10.0236 3.125 17.1917V35.8084C3.125 42.9764 8.86719 48.8408 15.8857 48.8408H34.1143C41.1328 48.8408 46.875 42.9764 46.875 35.8084V17.1917C46.875 10.0236 41.1328 4.15918 34.1143 4.15918Z" fill="#FDF8FF"/>
<path d="M36.8486 17.1917C36.3078 17.1917 35.7792 17.0279 35.3295 16.721C34.8798 16.4142 34.5294 15.978 34.3224 15.4677C34.1154 14.9575 34.0613 14.396 34.1668 13.8542C34.2723 13.3125 34.5327 12.8149 34.9151 12.4244C35.2976 12.0338 35.7848 11.7679 36.3152 11.6601C36.8456 11.5524 37.3954 11.6077 37.895 11.819C38.3947 12.0304 38.8217 12.3883 39.1222 12.8476C39.4226 13.3068 39.583 13.8467 39.583 14.399C39.5838 14.766 39.5136 15.1295 39.3764 15.4687C39.2393 15.8078 39.0379 16.116 38.7839 16.3755C38.5298 16.635 38.228 16.8406 37.8959 16.9807C37.5639 17.1207 37.2079 17.1924 36.8486 17.1917ZM25 19.0527C26.4422 19.0527 27.8521 19.4895 29.0512 20.3078C30.2504 21.1261 31.185 22.2892 31.7369 23.6501C32.2888 25.0109 32.4332 26.5083 32.1519 27.9529C31.8705 29.3975 31.176 30.7245 30.1562 31.766C29.1364 32.8075 27.8371 33.5168 26.4226 33.8042C25.0081 34.0915 23.5419 33.9441 22.2095 33.3804C20.877 32.8167 19.7382 31.8622 18.9369 30.6375C18.1357 29.4128 17.708 27.9729 17.708 26.5C17.7101 24.5255 18.479 22.6325 19.8461 21.2363C21.2131 19.8401 23.0667 19.0548 25 19.0527ZM25 15.3296C22.8368 15.3296 20.7221 15.9847 18.9235 17.2121C17.1248 18.4396 15.7229 20.1841 14.8951 22.2253C14.0672 24.2664 13.8506 26.5124 14.2727 28.6792C14.6947 30.8461 15.7364 32.8365 17.266 34.3987C18.7957 35.9609 20.7445 37.0248 22.8662 37.4558C24.9879 37.8868 27.187 37.6656 29.1856 36.8201C31.1842 35.9747 32.8924 34.5429 34.0942 32.706C35.296 30.869 35.9375 28.7093 35.9375 26.5C35.9375 23.5374 34.7852 20.6962 32.734 18.6013C30.6828 16.5065 27.9008 15.3296 25 15.3296Z" fill="#FDF8FF"/>
</svg>
