<svg width="158" height="25" viewBox="0 0 158 25" fill="none" xmlns="http://www.w3.org/2000/svg">
<path d="M6.175 14.025L7.3 24.85H0.55L1.675 14.025H6.175ZM3.925 7.075C4.90833 7.075 5.7 7.36667 6.3 7.95C6.91667 8.53333 7.225 9.24167 7.225 10.075C7.225 10.9083 6.91667 11.6083 6.3 12.175C5.7 12.7417 4.90833 13.025 3.925 13.025C2.95833 13.025 2.16667 12.7417 1.55 12.175C0.933333 11.6083 0.625 10.9083 0.625 10.075C0.625 9.24167 0.933333 8.53333 1.55 7.95C2.16667 7.36667 2.95833 7.075 3.925 7.075ZM15.8113 21.4C14.3447 21.4 12.928 21.2333 11.5613 20.9C10.1947 20.5667 9.06966 20.1333 8.18633 19.6L10.0863 15.3C10.9197 15.7833 11.8447 16.175 12.8613 16.475C13.8947 16.7583 14.8947 16.9 15.8613 16.9C16.428 16.9 16.8697 16.8667 17.1863 16.8C17.5197 16.7167 17.7613 16.6083 17.9113 16.475C18.0613 16.325 18.1363 16.15 18.1363 15.95C18.1363 15.6333 17.9613 15.3833 17.6113 15.2C17.2613 15.0167 16.7947 14.8667 16.2113 14.75C15.6447 14.6167 15.0197 14.4833 14.3363 14.35C13.653 14.2 12.9613 14.0083 12.2613 13.775C11.578 13.5417 10.9447 13.2333 10.3613 12.85C9.79466 12.4667 9.33633 11.9667 8.98633 11.35C8.63633 10.7167 8.46133 9.93333 8.46133 9C8.46133 7.91667 8.76133 6.93333 9.36133 6.05C9.97799 5.15 10.8863 4.43333 12.0863 3.9C13.303 3.36667 14.8113 3.1 16.6113 3.1C17.7947 3.1 18.9613 3.225 20.1113 3.475C21.2613 3.725 22.2947 4.10833 23.2113 4.625L21.4363 8.9C20.5697 8.46667 19.728 8.14167 18.9113 7.925C18.1113 7.70833 17.328 7.6 16.5613 7.6C15.9947 7.6 15.5447 7.65 15.2113 7.75C14.878 7.85 14.6363 7.98333 14.4863 8.15C14.353 8.31667 14.2863 8.5 14.2863 8.7C14.2863 9 14.4613 9.24167 14.8113 9.425C15.1613 9.59167 15.6197 9.73333 16.1863 9.85C16.7697 9.96667 17.403 10.0917 18.0863 10.225C18.7863 10.3583 19.478 10.5417 20.1613 10.775C20.8447 11.0083 21.4697 11.3167 22.0363 11.7C22.6197 12.0833 23.0863 12.5833 23.4363 13.2C23.7863 13.8167 23.9613 14.5833 23.9613 15.5C23.9613 16.5667 23.653 17.55 23.0363 18.45C22.4363 19.3333 21.5363 20.05 20.3363 20.6C19.1363 21.1333 17.628 21.4 15.8113 21.4ZM30.267 18.75L30.392 12.1L35.117 7.325H41.792L35.542 13.875L32.717 16.15L30.267 18.75ZM25.542 21V2.45H31.192V21H25.542ZM35.417 21L31.667 16.25L35.142 11.975L42.242 21H35.417ZM43.3643 21V7.325H49.0143V21H43.3643ZM46.1893 6.225C45.1559 6.225 44.3309 5.95 43.7143 5.4C43.0976 4.85 42.7893 4.16667 42.7893 3.35C42.7893 2.53333 43.0976 1.85 43.7143 1.3C44.3309 0.749999 45.1559 0.474999 46.1893 0.474999C47.2226 0.474999 48.0476 0.733332 48.6643 1.25C49.2809 1.76667 49.5893 2.43333 49.5893 3.25C49.5893 4.11667 49.2809 4.83333 48.6643 5.4C48.0476 5.95 47.2226 6.225 46.1893 6.225ZM51.5186 21V2.45H57.1686V21H51.5186ZM59.6729 21V2.45H65.3229V21H59.6729ZM68.0021 21V3.5H72.8521L79.8521 14.925H77.3021L84.1021 3.5H88.9521L89.0021 21H83.6271L83.5771 11.6H84.4271L79.7771 19.425H77.1771L72.3271 11.6H73.3771V21H68.0021ZM99.9547 21V18.575L99.5547 17.925V13.325C99.5547 12.6583 99.3464 12.15 98.9297 11.8C98.5297 11.45 97.8714 11.275 96.9547 11.275C96.338 11.275 95.713 11.375 95.0797 11.575C94.4464 11.7583 93.9047 12.0167 93.4547 12.35L91.6547 8.625C92.4547 8.125 93.413 7.74167 94.5297 7.475C95.6464 7.20833 96.738 7.075 97.8047 7.075C100.155 7.075 101.971 7.6 103.255 8.65C104.555 9.7 105.205 11.3667 105.205 13.65V21H99.9547ZM96.0797 21.25C94.963 21.25 94.0297 21.0583 93.2797 20.675C92.5297 20.2917 91.963 19.7833 91.5797 19.15C91.1964 18.5 91.0047 17.7833 91.0047 17C91.0047 16.1167 91.2297 15.3667 91.6797 14.75C92.1297 14.1333 92.813 13.6667 93.7297 13.35C94.663 13.0333 95.838 12.875 97.2547 12.875H100.105V15.6H98.1547C97.5547 15.6 97.113 15.7 96.8297 15.9C96.563 16.0833 96.4297 16.3667 96.4297 16.75C96.4297 17.0667 96.5464 17.3333 96.7797 17.55C97.0297 17.75 97.363 17.85 97.7797 17.85C98.163 17.85 98.513 17.75 98.8297 17.55C99.163 17.3333 99.4047 17 99.5547 16.55L100.28 18.225C100.063 19.2417 99.6047 20 98.9047 20.5C98.2047 21 97.263 21.25 96.0797 21.25ZM114.246 21.25C112.363 21.25 110.896 20.8 109.846 19.9C108.796 18.9833 108.271 17.5833 108.271 15.7V4.25H113.921V15.65C113.921 16.0667 114.03 16.3917 114.246 16.625C114.48 16.8583 114.763 16.975 115.096 16.975C115.58 16.975 116.005 16.85 116.371 16.6L117.721 20.525C117.288 20.775 116.763 20.9583 116.146 21.075C115.546 21.1917 114.913 21.25 114.246 21.25ZM106.396 12.2V8.075H116.721V12.2H106.396ZM126.129 21.25C124.563 21.25 123.171 20.95 121.954 20.35C120.738 19.75 119.779 18.9167 119.079 17.85C118.396 16.7667 118.054 15.5333 118.054 14.15C118.054 12.7667 118.396 11.5417 119.079 10.475C119.779 9.40833 120.738 8.575 121.954 7.975C123.171 7.375 124.563 7.075 126.129 7.075C127.796 7.075 129.221 7.43333 130.404 8.15C131.588 8.86667 132.404 9.85833 132.854 11.125L128.479 13.275C128.196 12.6417 127.846 12.1833 127.429 11.9C127.029 11.6167 126.588 11.475 126.104 11.475C125.688 11.475 125.296 11.575 124.929 11.775C124.579 11.975 124.296 12.275 124.079 12.675C123.879 13.0583 123.779 13.55 123.779 14.15C123.779 14.75 123.879 15.25 124.079 15.65C124.296 16.05 124.579 16.35 124.929 16.55C125.296 16.75 125.688 16.85 126.104 16.85C126.588 16.85 127.029 16.7083 127.429 16.425C127.846 16.1417 128.196 15.6833 128.479 15.05L132.854 17.2C132.404 18.4667 131.588 19.4583 130.404 20.175C129.221 20.8917 127.796 21.25 126.129 21.25ZM143.66 7.075C144.71 7.075 145.66 7.29167 146.51 7.725C147.36 8.14167 148.027 8.8 148.51 9.7C149.01 10.6 149.26 11.7667 149.26 13.2V21H143.61V14.175C143.61 13.325 143.46 12.725 143.16 12.375C142.86 12.0083 142.452 11.825 141.935 11.825C141.552 11.825 141.193 11.9167 140.86 12.1C140.543 12.2667 140.285 12.55 140.085 12.95C139.902 13.35 139.81 13.8917 139.81 14.575V21H134.16V2.45H139.81V11.325L138.46 10.175C138.993 9.14167 139.71 8.36667 140.61 7.85C141.527 7.33333 142.543 7.075 143.66 7.075ZM152.139 14.3L151.014 3.5H157.764L156.639 14.3H152.139ZM154.389 21.25C153.422 21.25 152.631 20.9583 152.014 20.375C151.397 19.775 151.089 19.0667 151.089 18.25C151.089 17.4167 151.397 16.7167 152.014 16.15C152.631 15.5833 153.422 15.3 154.389 15.3C155.372 15.3 156.164 15.5833 156.764 16.15C157.381 16.7167 157.689 17.4167 157.689 18.25C157.689 19.0667 157.381 19.775 156.764 20.375C156.164 20.9583 155.372 21.25 154.389 21.25Z" fill="#405ACF"/>
</svg>
