<svg width="283" height="44" viewBox="0 0 283 44" fill="none" xmlns="http://www.w3.org/2000/svg">
<path d="M10.115 24.445L12.14 43.93H-0.00999992L2.015 24.445H10.115ZM6.065 11.935C7.835 11.935 9.26 12.46 10.34 13.51C11.45 14.56 12.005 15.835 12.005 17.335C12.005 18.835 11.45 20.095 10.34 21.115C9.26 22.135 7.835 22.645 6.065 22.645C4.325 22.645 2.9 22.135 1.79 21.115C0.68 20.095 0.125 18.835 0.125 17.335C0.125 15.835 0.68 14.56 1.79 13.51C2.9 12.46 4.325 11.935 6.065 11.935ZM27.4604 37.72C24.8204 37.72 22.2704 37.42 19.8104 36.82C17.3504 36.22 15.3254 35.44 13.7354 34.48L17.1554 26.74C18.6554 27.61 20.3204 28.315 22.1504 28.855C24.0104 29.365 25.8104 29.62 27.5504 29.62C28.5704 29.62 29.3654 29.56 29.9354 29.44C30.5354 29.29 30.9704 29.095 31.2404 28.855C31.5104 28.585 31.6454 28.27 31.6454 27.91C31.6454 27.34 31.3304 26.89 30.7004 26.56C30.0704 26.23 29.2304 25.96 28.1804 25.75C27.1604 25.51 26.0354 25.27 24.8054 25.03C23.5754 24.76 22.3304 24.415 21.0704 23.995C19.8404 23.575 18.7004 23.02 17.6504 22.33C16.6304 21.64 15.8054 20.74 15.1754 19.63C14.5454 18.49 14.2304 17.08 14.2304 15.4C14.2304 13.45 14.7704 11.68 15.8504 10.09C16.9604 8.47 18.5954 7.18 20.7554 6.22C22.9454 5.26 25.6604 4.78 28.9004 4.78C31.0304 4.78 33.1304 5.005 35.2004 5.455C37.2704 5.905 39.1304 6.595 40.7804 7.525L37.5854 15.22C36.0254 14.44 34.5104 13.855 33.0404 13.465C31.6004 13.075 30.1904 12.88 28.8104 12.88C27.7904 12.88 26.9804 12.97 26.3804 13.15C25.7804 13.33 25.3454 13.57 25.0754 13.87C24.8354 14.17 24.7154 14.5 24.7154 14.86C24.7154 15.4 25.0304 15.835 25.6604 16.165C26.2904 16.465 27.1154 16.72 28.1354 16.93C29.1854 17.14 30.3254 17.365 31.5554 17.605C32.8154 17.845 34.0604 18.175 35.2904 18.595C36.5204 19.015 37.6454 19.57 38.6654 20.26C39.7154 20.95 40.5554 21.85 41.1854 22.96C41.8154 24.07 42.1304 25.45 42.1304 27.1C42.1304 29.02 41.5754 30.79 40.4654 32.41C39.3854 34 37.7654 35.29 35.6054 36.28C33.4454 37.24 30.7304 37.72 27.4604 37.72ZM53.4806 32.95L53.7056 20.98L62.2106 12.385H74.2256L62.9756 24.175L57.8906 28.27L53.4806 32.95ZM44.9756 37V3.61H55.1456V37H44.9756ZM62.7506 37L56.0006 28.45L62.2556 20.755L75.0356 37H62.7506ZM77.0557 37V12.385H87.2257V37H77.0557ZM82.1407 10.405C80.2807 10.405 78.7957 9.91 77.6857 8.92C76.5757 7.93 76.0207 6.7 76.0207 5.23C76.0207 3.76 76.5757 2.53 77.6857 1.54C78.7957 0.549998 80.2807 0.0549982 82.1407 0.0549982C84.0007 0.0549982 85.4857 0.519998 86.5957 1.45C87.7057 2.38 88.2607 3.58 88.2607 5.05C88.2607 6.61 87.7057 7.9 86.5957 8.92C85.4857 9.91 84.0007 10.405 82.1407 10.405ZM91.7334 37V3.61H101.903V37H91.7334ZM106.411 37V3.61H116.581V37H106.411ZM121.404 37V5.5H130.134L142.734 26.065H138.144L150.384 5.5H159.114L159.204 37H149.529L149.439 20.08H150.969L142.599 34.165H137.919L129.189 20.08H131.079V37H121.404ZM178.918 37V32.635L178.198 31.465V23.185C178.198 21.985 177.823 21.07 177.073 20.44C176.353 19.81 175.168 19.495 173.518 19.495C172.408 19.495 171.283 19.675 170.143 20.035C169.003 20.365 168.028 20.83 167.218 21.43L163.978 14.725C165.418 13.825 167.143 13.135 169.153 12.655C171.163 12.175 173.128 11.935 175.048 11.935C179.278 11.935 182.548 12.88 184.858 14.77C187.198 16.66 188.368 19.66 188.368 23.77V37H178.918ZM171.943 37.45C169.933 37.45 168.253 37.105 166.903 36.415C165.553 35.725 164.533 34.81 163.843 33.67C163.153 32.5 162.808 31.21 162.808 29.8C162.808 28.21 163.213 26.86 164.023 25.75C164.833 24.64 166.063 23.8 167.713 23.23C169.393 22.66 171.508 22.375 174.058 22.375H179.188V27.28H175.678C174.598 27.28 173.803 27.46 173.293 27.82C172.813 28.15 172.573 28.66 172.573 29.35C172.573 29.92 172.783 30.4 173.203 30.79C173.653 31.15 174.253 31.33 175.003 31.33C175.693 31.33 176.323 31.15 176.893 30.79C177.493 30.4 177.928 29.8 178.198 28.99L179.503 32.005C179.113 33.835 178.288 35.2 177.028 36.1C175.768 37 174.073 37.45 171.943 37.45ZM204.644 37.45C201.254 37.45 198.614 36.64 196.724 35.02C194.834 33.37 193.889 30.85 193.889 27.46V6.85H204.059V27.37C204.059 28.12 204.254 28.705 204.644 29.125C205.064 29.545 205.574 29.755 206.174 29.755C207.044 29.755 207.809 29.53 208.469 29.08L210.899 36.145C210.119 36.595 209.174 36.925 208.064 37.135C206.984 37.345 205.844 37.45 204.644 37.45ZM190.514 21.16V13.735H209.099V21.16H190.514ZM226.033 37.45C223.213 37.45 220.708 36.91 218.518 35.83C216.328 34.75 214.603 33.25 213.343 31.33C212.113 29.38 211.498 27.16 211.498 24.67C211.498 22.18 212.113 19.975 213.343 18.055C214.603 16.135 216.328 14.635 218.518 13.555C220.708 12.475 223.213 11.935 226.033 11.935C229.033 11.935 231.598 12.58 233.728 13.87C235.858 15.16 237.328 16.945 238.138 19.225L230.263 23.095C229.753 21.955 229.123 21.13 228.373 20.62C227.653 20.11 226.858 19.855 225.988 19.855C225.238 19.855 224.533 20.035 223.873 20.395C223.243 20.755 222.733 21.295 222.343 22.015C221.983 22.705 221.803 23.59 221.803 24.67C221.803 25.75 221.983 26.65 222.343 27.37C222.733 28.09 223.243 28.63 223.873 28.99C224.533 29.35 225.238 29.53 225.988 29.53C226.858 29.53 227.653 29.275 228.373 28.765C229.123 28.255 229.753 27.43 230.263 26.29L238.138 30.16C237.328 32.44 235.858 34.225 233.728 35.515C231.598 36.805 229.033 37.45 226.033 37.45ZM257.588 11.935C259.478 11.935 261.188 12.325 262.718 13.105C264.248 13.855 265.448 15.04 266.318 16.66C267.218 18.28 267.668 20.38 267.668 22.96V37H257.498V24.715C257.498 23.185 257.228 22.105 256.688 21.475C256.148 20.815 255.413 20.485 254.483 20.485C253.793 20.485 253.148 20.65 252.548 20.98C251.978 21.28 251.513 21.79 251.153 22.51C250.823 23.23 250.658 24.205 250.658 25.435V37H240.488V3.61H250.658V19.585L248.228 17.515C249.188 15.655 250.478 14.26 252.098 13.33C253.748 12.4 255.578 11.935 257.588 11.935ZM272.85 24.94L270.825 5.5H282.975L280.95 24.94H272.85ZM276.9 37.45C275.16 37.45 273.735 36.925 272.625 35.875C271.515 34.795 270.96 33.52 270.96 32.05C270.96 30.55 271.515 29.29 272.625 28.27C273.735 27.25 275.16 26.74 276.9 26.74C278.67 26.74 280.095 27.25 281.175 28.27C282.285 29.29 282.84 30.55 282.84 32.05C282.84 33.52 282.285 34.795 281.175 35.875C280.095 36.925 278.67 37.45 276.9 37.45Z" fill="white"/>
</svg>
