<svg width="35" height="37" viewBox="0 0 35 37" fill="none" xmlns="http://www.w3.org/2000/svg">
<path d="M6.26741 31.7306L2.57122 28.2988C1.72169 27.5101 1.71855 26.1666 2.56439 25.3739L8.00412 20.2758C8.77075 19.5573 9.96262 19.5545 10.7326 20.2694L14.4288 23.7012C15.2783 24.4899 15.2814 25.8334 14.4356 26.6261L8.99588 31.7242C8.22925 32.4427 7.03738 32.4455 6.26741 31.7306Z" stroke="#405ACF" stroke-width="2"/>
<path d="M9 19.1773L12.1873 6.9991C12.5552 5.59336 14.252 5.03677 15.3811 5.95144L28.3912 16.4911C29.5687 17.4451 29.2989 19.311 27.8993 19.8922L15.6 25" stroke="#405ACF" stroke-width="2"/>
<path d="M19 8.92821C19 8.92821 22.9375 6.83974 25.0577 8.92821C27.1779 11.0167 25.0577 14 25.0577 14" stroke="#405ACF" stroke-width="2"/>
<path d="M25 5V1" stroke="#405ACF" stroke-width="2" stroke-linecap="round"/>
<path d="M30.4008 10.919L34 10.835" stroke="#405ACF" stroke-width="2" stroke-linecap="round"/>
<path d="M28.6011 7.04497L31.0166 4.47119" stroke="#405ACF" stroke-width="2" stroke-linecap="round"/>
<path d="M9 31.6957L12.8382 34.8966C13.5987 35.5308 14.7087 35.5131 15.4485 34.855L17.3592 33.1552C18.2395 32.3721 18.2556 31.0016 17.3938 30.1981L14.5 27.5" stroke="#405ACF" stroke-width="2" stroke-linecap="round"/>
</svg>
