<svg width="32" height="37" viewBox="0 0 32 37" fill="none" xmlns="http://www.w3.org/2000/svg">
<path d="M1 27.2V33.9967C1 33.9967 3.14282 32.7446 4.74994 32.7446C6.35705 32.7446 14.1248 36 16.2676 36C18.4104 36 29.1245 28.7379 30.4638 27.7363C31.803 26.7346 30.4638 24.2304 28.321 25.2321C26.1781 26.2338 18.9461 30.7412 17.8747 31.2421C16.8033 31.7429 15 30 15 29.5" stroke="#405ACF" stroke-width="2"/>
<path d="M1 27.5C1 26 7.95852 25 9.5731 25C11.1877 25 20.3747 27.1054 21.4511 27.3159C22.5275 27.5265 22 27 20.1056 28.5791C18.2112 30.1582 11.4945 29.0001 11.4945 29.0001" stroke="#405ACF" stroke-width="2"/>
<path d="M20 27C20 27 24 24.312 26 24.0431C28 23.7743 28 24.8495 28 24.8495" stroke="#405ACF" stroke-width="2"/>
<path d="M20.2622 1H12C9.23858 1 7 3.23858 7 6V17C7 19.7614 9.23858 22 12 22H20C22.7614 22 25 19.7614 25 17V5.72095C25 5.18837 24.7876 4.67778 24.4098 4.30236L21.672 1.58141C21.2973 1.20902 20.7904 1 20.2622 1Z" stroke="#405ACF" stroke-width="2"/>
<path d="M21 1V5C21 5.55228 21.4477 6 22 6H24.5" stroke="#405ACF" stroke-width="1.5"/>
<path d="M10 11H20" stroke="#405ACF" stroke-linecap="round"/>
<path d="M10 14H22" stroke="#405ACF" stroke-linecap="round"/>
</svg>
